<svg xmlns="http://www.w3.org/2000/svg" xmlns:xlink="http://www.w3.org/1999/xlink" viewBox="0 0 1356 242"><defs><style>.a{clip-path:url(#b);}.b{fill:purple;stroke:#5d255d;stroke-width:5px;}.c,.f{fill:none;}.c{stroke:purple;stroke-linecap:round;stroke-width:10px;}.d{fill:rgba(160,122,255,0.29);}.e{stroke:none;}.g{fill:rgba(160,122,255,0.77);}</style><clipPath id="b"><rect width="1356" height="242"/></clipPath></defs><g id="a" class="a"><rect class="g" width="1356" height="242"/><g class="b" transform="translate(1150 69)"><circle class="e" cx="14" cy="14" r="14"/><circle class="f" cx="14" cy="14" r="11.5"/></g><g class="b" transform="translate(1029 69)"><circle class="e" cx="14" cy="14" r="14"/><circle class="f" cx="14" cy="14" r="11.5"/></g><g class="b" transform="translate(968 29)"><circle class="e" cx="14" cy="14" r="14"/><circle class="f" cx="14" cy="14" r="11.5"/></g><g class="b" transform="translate(902 27)"><circle class="e" cx="14" cy="14" r="14"/><circle class="f" cx="14" cy="14" r="11.5"/></g><g class="b" transform="translate(781 29)"><circle class="e" cx="14" cy="14" r="14"/><circle class="f" cx="14" cy="14" r="11.5"/></g><g class="b" transform="translate(664 121)"><circle class="e" cx="14" cy="14" r="14"/><circle class="f" cx="14" cy="14" r="11.5"/></g><g class="b" transform="translate(534 119)"><circle class="e" cx="14" cy="14" r="14"/><circle class="f" cx="14" cy="14" r="11.5"/></g><g class="b" transform="translate(413 55)"><circle class="e" cx="14" cy="14" r="14"/><circle class="f" cx="14" cy="14" r="11.5"/></g><g class="b" transform="translate(167 107)"><circle class="e" cx="14" cy="14" r="14"/><circle class="f" cx="14" cy="14" r="11.5"/></g><line class="c" x2="120" transform="translate(49.5 121.5)"/><g class="b" transform="translate(285 58)"><circle class="e" cx="14" cy="14" r="14"/><circle class="f" cx="14" cy="14" r="11.5"/></g><line class="c" y1="49" x2="120" transform="translate(180.5 72.5)"/><line class="c" y1="4" x2="120" transform="translate(300.5 68.5)"/><line class="c" x2="120" y2="62" transform="translate(427.5 70.5)"/><line class="c" x2="120" y2="62" transform="translate(427.5 70.5)"/><line class="c" x2="120" y2="1" transform="translate(550.5 134.5)"/><line class="c" y1="92" x2="120" transform="translate(678.5 42.5)"/><line class="c" y1="2" x2="120" transform="translate(795.5 40.5)"/><line class="c" x2="60" y2="1" transform="translate(921.5 41.5)"/><line class="c" x2="60" y2="40" transform="translate(982.5 43.5)"/><line class="c" x2="120" transform="translate(1043.5 83.5)"/><line class="c" x2="120" transform="translate(1164.5 83.5)"/><circle class="d" cx="96" cy="96" r="96" transform="translate(1225 102)"/><circle class="d" cx="96" cy="96" r="96" transform="translate(547 -41)"/><circle class="d" cx="96" cy="96" r="96" transform="translate(-46 -41)"/><circle class="d" cx="96" cy="96" r="96" transform="translate(370 175)"/></g></svg>