<svg xmlns="http://www.w3.org/2000/svg" xmlns:xlink="http://www.w3.org/1999/xlink" viewBox="0 0 550 550"><defs><style>.a{clip-path:url(#n);}.b{fill:#0b6755;}.c{fill:#0c7c66;}.d,.f{fill:#148f77;}.e{fill:rgba(219,219,219,0.44);}.f,.g{stroke:#148f77;}.f{font-size:104px;font-family:HelveticaNeue, Helvetica Neue;letter-spacing:0.1em;}.g,.h,.i{fill:none;stroke-width:6px;}.g,.i{stroke-linecap:round;}.h,.i{stroke:rgba(219,219,219,0.44);}.j{filter:url(#k);}.k{filter:url(#i);}.l{filter:url(#g);}.m{filter:url(#e);}.n{filter:url(#c);}.o{filter:url(#a);}</style><filter id="a" x="158.854" y="3.223" width="330.293" height="536.554" filterUnits="userSpaceOnUse"><feOffset dx="10" dy="3" input="SourceAlpha"/><feGaussianBlur stdDeviation="3" result="b"/><feFlood flood-opacity="0.161"/><feComposite operator="in" in2="b"/><feComposite in="SourceGraphic"/></filter><filter id="c" x="226" y="-6" width="291" height="530" filterUnits="userSpaceOnUse"><feOffset dx="10" dy="3" input="SourceAlpha"/><feGaussianBlur stdDeviation="3" result="d"/><feFlood flood-opacity="0.161"/><feComposite operator="in" in2="d"/><feComposite in="SourceGraphic"/></filter><filter id="e" x="247.845" y="10.803" width="246.973" height="71.617" filterUnits="userSpaceOnUse"><feOffset dx="10" dy="3" input="SourceAlpha"/><feGaussianBlur stdDeviation="3" result="f"/><feFlood flood-opacity="0.161"/><feComposite operator="in" in2="f"/><feComposite in="SourceGraphic"/></filter><filter id="g" x="253" y="431.8" width="246.973" height="71.617" filterUnits="userSpaceOnUse"><feOffset dx="10" dy="3" input="SourceAlpha"/><feGaussianBlur stdDeviation="3" result="h"/><feFlood flood-opacity="0.161"/><feComposite operator="in" in2="h"/><feComposite in="SourceGraphic"/></filter><filter id="i" x="180.135" y="36.11" width="67.865" height="81.491" filterUnits="userSpaceOnUse"><feOffset dx="10" dy="3" input="SourceAlpha"/><feGaussianBlur stdDeviation="3" result="j"/><feFlood flood-opacity="0.161"/><feComposite operator="in" in2="j"/><feComposite in="SourceGraphic"/></filter><filter id="k" x="109.641" y="90.866" width="79.497" height="79.483" filterUnits="userSpaceOnUse"><feOffset dx="10" dy="3" input="SourceAlpha"/><feGaussianBlur stdDeviation="3" result="l"/><feFlood flood-opacity="0.161"/><feComposite operator="in" in2="l"/><feComposite in="SourceGraphic"/></filter><clipPath id="n"><rect width="550" height="550"/></clipPath></defs><g id="m" class="a"><rect class="b" width="265" height="450" rx="5" transform="translate(88.502 96.416) rotate(-11)"/><g class="o" transform="matrix(1, 0, 0, 1, 0, 0)"><rect class="c" width="269" height="497" rx="5" transform="matrix(1, -0.09, 0.09, 1, 158.85, 32.67)"/></g><g class="n" transform="matrix(1, 0, 0, 1, 0, 0)"><rect class="d" width="272" height="512" rx="5" transform="translate(226)"/></g><circle class="e" cx="111" cy="111" r="111" transform="translate(251 145)"/><text class="f" transform="translate(322.567 223.313) rotate(89)"><tspan x="0" y="0">S</tspan></text><line class="g" x1="10" transform="translate(307.5 256.5)"/><line class="g" x2="10" transform="translate(400.5 258.5)"/><path class="h" d="M408,1429.406c.261-55.641,0-50.464,0-50.464H629.818v50.464" transform="translate(-157 -1359)"/><g class="m" transform="matrix(1, 0, 0, 1, 0, 0)"><path class="i" d="M408,1429.406c.261-55.641,0-50.464,0-50.464H629.818v50.464" transform="translate(-157 -1359)"/></g><g class="l" transform="matrix(1, 0, 0, 1, 0, 0)"><path class="i" d="M408,1429.406c.261-55.641,0-50.464,0-50.464H629.818v50.464" transform="translate(885.82 1867.22) rotate(180)"/></g><circle class="e" cx="12" cy="12" r="12" transform="translate(355 58)"/><circle class="e" cx="12" cy="12" r="12" transform="translate(355 426)"/><path class="h" d="M383,1404.11c-45.63,2.167-42.828,5.548-42.828,5.548l5,51.943" transform="translate(-157 -1359)"/><g class="k" transform="matrix(1, 0, 0, 1, 0, 0)"><path class="i" d="M383,1404.11c-45.63,2.167-42.828,5.548-42.828,5.548l5,51.943" transform="translate(-157 -1359)"/></g><g class="j" transform="matrix(1, 0, 0, 1, 0, 0)"><path class="i" d="M391.943,1404.11c-55.151,2.391-51.764,6.121-51.764,6.121l3.721,46.69" transform="matrix(0.99, -0.1, 0.1, 0.99, -372.1, -1255.59)"/></g></g></svg>