<svg xmlns="http://www.w3.org/2000/svg" xmlns:xlink="http://www.w3.org/1999/xlink" viewBox="0 0 512 512"><defs><style>.a{clip-path:url(#j);}.b{fill:rgba(219,219,219,0.51);stroke:#5d445d;stroke-width:25px;}.c,.d{fill:#f9f9f9;}.d{stroke:#f9f9f9;}.e,.f,.g,.j{fill:none;}.e{stroke:#c93649;}.e,.f,.g{stroke-linecap:round;}.e,.g{stroke-width:8px;}.f,.g{stroke:#905a90;}.f{stroke-width:12px;}.h{fill:#5d445d;}.i{stroke:none;}.k{filter:url(#g);}.l{filter:url(#e);}.m{filter:url(#c);}.n{filter:url(#a);}</style><filter id="a" x="223" y="227" width="78" height="78" filterUnits="userSpaceOnUse"><feOffset dx="10" dy="10" input="SourceAlpha"/><feGaussianBlur stdDeviation="5" result="b"/><feFlood flood-opacity="0.161"/><feComposite operator="in" in2="b"/><feComposite in="SourceGraphic"/></filter><filter id="c" x="158.063" y="221.063" width="159.874" height="100.874" filterUnits="userSpaceOnUse"><feOffset dx="10" dy="3" input="SourceAlpha"/><feGaussianBlur stdDeviation="3" result="d"/><feFlood flood-opacity="0.161"/><feComposite operator="in" in2="d"/><feComposite in="SourceGraphic"/></filter><filter id="e" x="208.165" y="188.165" width="71.669" height="87.669" filterUnits="userSpaceOnUse"><feOffset dx="10" dy="3" input="SourceAlpha"/><feGaussianBlur stdDeviation="3" result="f"/><feFlood flood-opacity="0.161"/><feComposite operator="in" in2="f"/><feComposite in="SourceGraphic"/></filter><filter id="g" x="251.5" y="246.5" width="110" height="26" filterUnits="userSpaceOnUse"><feOffset dy="3" input="SourceAlpha"/><feGaussianBlur stdDeviation="3" result="h"/><feFlood flood-opacity="0.161"/><feComposite operator="in" in2="h"/><feComposite in="SourceGraphic"/></filter><clipPath id="j"><rect width="512" height="512"/></clipPath></defs><g id="i" class="a"><g class="b"><circle class="i" cx="256" cy="256" r="256"/><circle class="j" cx="256" cy="256" r="243.5"/></g><path class="c" d="M223,1.061C346.159,1.061,448.681,130.4,454.4,233S346.159,466,223,466,0,361.682,0,233,99.841,1.061,223,1.061Z" transform="translate(25 22)"/><g class="n" transform="matrix(1, 0, 0, 1, 0, 0)"><g class="d" transform="translate(228 232)"><circle class="i" cx="24" cy="24" r="24"/><circle class="j" cx="24" cy="24" r="23.5"/></g></g><g class="m" transform="matrix(1, 0, 0, 1, 0, 0)"><line class="e" x1="130" y2="72" transform="translate(163.5 232.5)"/></g><g class="l" transform="matrix(1, 0, 0, 1, 0, 0)"><line class="f" x1="36" y1="53" transform="translate(216.5 202.5)"/></g><g class="k" transform="matrix(1, 0, 0, 1, 0, 0)"><line class="g" x2="84" transform="translate(264.5 256.5)"/></g><circle class="h" cx="12" cy="12" r="12" transform="translate(240 244)"/></g></svg>