<svg xmlns="http://www.w3.org/2000/svg" xmlns:xlink="http://www.w3.org/1999/xlink" viewBox="0 0 520 529"><defs><style>.a{fill:plum;}.b,.e,.k{fill:none;}.c{clip-path:url(#d);}.d{clip-path:url(#a);}.e,.i{stroke:#905a90;}.e{stroke-width:20px;}.f{fill:#5d445d;}.g{opacity:0.2;}.h{clip-path:url(#b);}.i{fill:#fff;stroke-width:7px;}.j{fill:#905a90;}.k{stroke:#c09eea;stroke-width:8px;}.l{stroke:none;}</style><clipPath id="a"><circle class="a" cx="256" cy="256" r="256" transform="translate(-2)"/></clipPath><clipPath id="b"><rect class="b" width="240" height="221"/></clipPath><clipPath id="d"><rect width="520" height="529"/></clipPath></defs><g id="c" class="c"><g class="d" transform="translate(10 17)"><circle class="a" cx="256" cy="256" r="256" transform="translate(-2)"/><g class="e" transform="translate(91 88)"><rect class="l" width="330" height="452"/><rect class="b" x="10" y="10" width="310" height="432"/></g><rect class="f" width="150" height="60" rx="20" transform="translate(180 60)"/><rect class="f" width="90" height="30" transform="translate(210 30)"/><rect class="g" width="90" height="18" transform="translate(210 60)"/><g class="h" transform="translate(120 150)"><g transform="translate(-120 -150)"><g class="i" transform="translate(120 150)"><rect class="l" width="60" height="60" rx="17"/><rect class="b" x="3.5" y="3.5" width="53" height="53" rx="13.5"/></g><rect class="j" width="150" height="17" transform="translate(210 150)"/><rect class="j" width="150" height="16" transform="translate(210 194)"/><rect class="j" width="150" height="17" transform="translate(210 172)"/><path class="k" d="M289.23,254.349c13.909,24.674,12.759,22.254,12.759,22.254L337,230.994" transform="translate(-157 -80.994)"/></g><g transform="translate(-120 -70)"><g class="i" transform="translate(120 150)"><rect class="l" width="60" height="60" rx="17"/><rect class="b" x="3.5" y="3.5" width="53" height="53" rx="13.5"/></g><rect class="j" width="150" height="17" transform="translate(210 150)"/><rect class="j" width="150" height="16" transform="translate(210 194)"/><rect class="j" width="150" height="17" transform="translate(210 172)"/><path class="k" d="M289.23,254.349c13.909,24.674,12.759,22.254,12.759,22.254L337,230.994" transform="translate(-157 -80.994)"/></g><g transform="translate(-120 10)"><g class="i" transform="translate(120 150)"><rect class="l" width="60" height="60" rx="17"/><rect class="b" x="3.5" y="3.5" width="53" height="53" rx="13.5"/></g><rect class="j" width="150" height="17" transform="translate(210 150)"/><rect class="j" width="150" height="16" transform="translate(210 194)"/><rect class="j" width="150" height="17" transform="translate(210 172)"/><path class="k" d="M289.23,254.349c13.909,24.674,12.759,22.254,12.759,22.254L337,230.994" transform="translate(-157 -80.994)"/></g></g></g></g></svg>