<svg xmlns="http://www.w3.org/2000/svg" xmlns:xlink="http://www.w3.org/1999/xlink" viewBox="0 0 1073 876"><defs><style>.a{clip-path:url(#ar);}.b{fill:#e6e6e6;}.bj,.c,.d{fill:#ffe0bd;}.bk,.e,.o{fill:#ffad60;}.aa,.ad,.bb,.bc,.bd,.be,.bg,.bh,.e,.g,.t,.v,.w,.y,.z{stroke-linecap:round;}.bo,.f,.l{fill:#ff0080;}.aa,.ae,.ag,.al,.bb,.bf,.g,.n{fill:#fff;}.bn,.h,.i,.j{fill:#985198;}.h{stroke:#985198;}.k{fill:rgba(152,81,152,0.87);}.m{fill:#5d255d;}.n{stroke:rgba(255,255,255,0);}.bp,.p,.q{fill:#f2f2f2;}.r{fill:rgba(255,173,96,0.75);}.s{fill:purple;}.at,.au,.av,.aw,.bc,.bd,.be,.bg,.bh,.bm,.t,.v,.y,.z{fill:none;}.t,.v{stroke:#ffad60;}.bh,.t{stroke-width:3px;}.u{fill:#87cefa;}.au,.av,.aw,.bc,.bd,.be,.bf,.bg,.v{stroke-width:2px;}.w{fill:#bca68f;stroke:#d3a05f;}.bb,.w,.y{stroke-width:8px;}.x{fill:rgba(154,138,121,0.56);}.y{stroke:rgba(162,114,80,0.72);}.z{stroke:#a7a7a7;stroke-width:10px;}.aa,.ad,.bg{stroke:silver;}.aa{stroke-width:14px;}.ab{fill:#8afdd6;}.ac{fill:#aa66cd;}.ad{fill:rgba(255,255,255,0);stroke-width:11px;}.ae{stroke:#fff;}.af{fill:#cdaa66;}.ah{fill:#dda0bf;}.ai{fill:plum;}.aj{fill:#f87601;}.ak{fill:#ae9a34;}.al,.au{stroke:#707070;}.am{fill:#a0dddd;}.an{fill:#ff7ad9;}.ao{fill:#ff692e;}.ap{fill:#b300b3;}.aq{fill:#ff7a97;}.ar{fill:#a07aff;}.as{fill:#8000ff;}.at,.bd{stroke:#87cefa;}.at{stroke-width:5px;}.av{stroke:rgba(112,112,112,0.81);}.aw{stroke:rgba(112,112,112,0.8);}.ax{fill:rgba(255,0,128,0.54);}.ay{fill:#51a4e2;}.az,.bq{fill:silver;}.ba{fill:#934db7;}.bb{stroke:#5d255d;}.bc{stroke:#d84d4d;}.be{stroke:#ff0080;}.bf{stroke:purple;}.bh{stroke:#e6e6e6;}.bi,.bj,.bk,.bl,.bn,.bo,.bp,.bq{stroke:none;}.bl{fill:#707070;}.br{filter:url(#ao);}.bs{filter:url(#am);}.bt{filter:url(#ak);}.bu{filter:url(#ai);}.bv{filter:url(#ag);}.bw{filter:url(#ae);}.bx{filter:url(#ac);}.by{filter:url(#aa);}.bz{filter:url(#y);}.ca{filter:url(#w);}.cb{filter:url(#u);}.cc{filter:url(#s);}.cd{filter:url(#q);}.ce{filter:url(#o);}.cf{filter:url(#m);}.cg{filter:url(#k);}.ch{filter:url(#i);}.ci{filter:url(#g);}.cj{filter:url(#e);}.ck{filter:url(#c);}.cl{filter:url(#a);}</style><filter id="a" x="422.158" y="804" width="58.619" height="48.682" filterUnits="userSpaceOnUse"><feOffset dy="3" input="SourceAlpha"/><feGaussianBlur stdDeviation="5" result="b"/><feFlood flood-opacity="0.161"/><feComposite operator="in" in2="b"/><feComposite in="SourceGraphic"/></filter><filter id="c" x="372.158" y="810" width="50.138" height="36.682" filterUnits="userSpaceOnUse"><feOffset dy="3" input="SourceAlpha"/><feGaussianBlur stdDeviation="3" result="d"/><feFlood flood-opacity="0.161"/><feComposite operator="in" in2="d"/><feComposite in="SourceGraphic"/></filter><filter id="e" x="199" y="809" width="41.628" height="36.13" filterUnits="userSpaceOnUse"><feOffset dy="3" input="SourceAlpha"/><feGaussianBlur stdDeviation="3" result="f"/><feFlood flood-opacity="0.161"/><feComposite operator="in" in2="f"/><feComposite in="SourceGraphic"/></filter><filter id="g" x="244.122" y="574.226" width="60.425" height="65.398" filterUnits="userSpaceOnUse"><feOffset dy="3" input="SourceAlpha"/><feGaussianBlur stdDeviation="3" result="h"/><feFlood flood-opacity="0.161"/><feComposite operator="in" in2="h"/><feComposite in="SourceGraphic"/></filter><filter id="i" x="491" y="360" width="263" height="502" filterUnits="userSpaceOnUse"><feOffset dx="10" dy="3" input="SourceAlpha"/><feGaussianBlur stdDeviation="3" result="j"/><feFlood flood-opacity="0.161"/><feComposite operator="in" in2="j"/><feComposite in="SourceGraphic"/></filter><filter id="k" x="678" y="368" width="68" height="488" filterUnits="userSpaceOnUse"><feOffset dx="10" dy="3" input="SourceAlpha"/><feGaussianBlur stdDeviation="3" result="l"/><feFlood flood-opacity="0.161"/><feComposite operator="in" in2="l"/><feComposite in="SourceGraphic"/></filter><filter id="m" x="944" y="468" width="95" height="83" filterUnits="userSpaceOnUse"><feOffset dx="10" dy="3" input="SourceAlpha"/><feGaussianBlur stdDeviation="3" result="n"/><feFlood flood-opacity="0.161"/><feComposite operator="in" in2="n"/><feComposite in="SourceGraphic"/></filter><filter id="o" x="1002.402" y="519" width="48.098" height="32" filterUnits="userSpaceOnUse"><feOffset dx="10" dy="3" input="SourceAlpha"/><feGaussianBlur stdDeviation="3" result="p"/><feFlood flood-opacity="0.161"/><feComposite operator="in" in2="p"/><feComposite in="SourceGraphic"/></filter><filter id="q" x="499" y="368" width="35" height="105" filterUnits="userSpaceOnUse"><feOffset dx="10" dy="3" input="SourceAlpha"/><feGaussianBlur stdDeviation="3" result="r"/><feFlood flood-opacity="0.161"/><feComposite operator="in" in2="r"/><feComposite in="SourceGraphic"/></filter><filter id="s" x="524.769" y="372.162" width="52.811" height="100.523" filterUnits="userSpaceOnUse"><feOffset dx="10" dy="3" input="SourceAlpha"/><feGaussianBlur stdDeviation="3" result="t"/><feFlood flood-opacity="0.161"/><feComposite operator="in" in2="t"/><feComposite in="SourceGraphic"/></filter><filter id="u" x="499.01" y="479.541" width="47.98" height="103.919" filterUnits="userSpaceOnUse"><feOffset dx="10" dy="3" input="SourceAlpha"/><feGaussianBlur stdDeviation="3" result="v"/><feFlood flood-opacity="0.161"/><feComposite operator="in" in2="v"/><feComposite in="SourceGraphic"/></filter><filter id="w" x="528" y="478" width="32" height="103" filterUnits="userSpaceOnUse"><feOffset dx="10" dy="3" input="SourceAlpha"/><feGaussianBlur stdDeviation="3" result="x"/><feFlood flood-opacity="0.161"/><feComposite operator="in" in2="x"/><feComposite in="SourceGraphic"/></filter><filter id="y" x="554" y="478" width="32" height="103" filterUnits="userSpaceOnUse"><feOffset dx="10" dy="3" input="SourceAlpha"/><feGaussianBlur stdDeviation="3" result="z"/><feFlood flood-opacity="0.161"/><feComposite operator="in" in2="z"/><feComposite in="SourceGraphic"/></filter><filter id="aa" x="585" y="487" width="72" height="94" filterUnits="userSpaceOnUse"><feOffset dx="10" dy="3" input="SourceAlpha"/><feGaussianBlur stdDeviation="3" result="ab"/><feFlood flood-opacity="0.161"/><feComposite operator="in" in2="ab"/><feComposite in="SourceGraphic"/></filter><filter id="ac" x="638" y="487" width="72" height="94" filterUnits="userSpaceOnUse"><feOffset dx="10" dy="3" input="SourceAlpha"/><feGaussianBlur stdDeviation="3" result="ad"/><feFlood flood-opacity="0.161"/><feComposite operator="in" in2="ad"/><feComposite in="SourceGraphic"/></filter><filter id="ae" x="530.117" y="611" width="37.25" height="63.37" filterUnits="userSpaceOnUse"><feOffset dx="10" dy="3" input="SourceAlpha"/><feGaussianBlur stdDeviation="3" result="af"/><feFlood flood-opacity="0.161"/><feComposite operator="in" in2="af"/><feComposite in="SourceGraphic"/></filter><filter id="ag" x="525" y="639.045" width="48" height="39.955" filterUnits="userSpaceOnUse"><feOffset dx="10" dy="3" input="SourceAlpha"/><feGaussianBlur stdDeviation="3" result="ah"/><feFlood flood-opacity="0.161"/><feComposite operator="in" in2="ah"/><feComposite in="SourceGraphic"/></filter><filter id="ai" x="799" y="321" width="97" height="96" filterUnits="userSpaceOnUse"><feOffset dx="10" dy="3" input="SourceAlpha"/><feGaussianBlur stdDeviation="3" result="aj"/><feFlood flood-opacity="0.161"/><feComposite operator="in" in2="aj"/><feComposite in="SourceGraphic"/></filter><filter id="ak" x="828.087" y="353.087" width="35.827" height="35.827" filterUnits="userSpaceOnUse"><feOffset dx="10" dy="3" input="SourceAlpha"/><feGaussianBlur stdDeviation="3" result="al"/><feFlood flood-opacity="0.161"/><feComposite operator="in" in2="al"/><feComposite in="SourceGraphic"/></filter><filter id="am" x="841.5" y="359.5" width="32" height="20" filterUnits="userSpaceOnUse"><feOffset dx="10" dy="3" input="SourceAlpha"/><feGaussianBlur stdDeviation="3" result="an"/><feFlood flood-opacity="0.161"/><feComposite operator="in" in2="an"/><feComposite in="SourceGraphic"/></filter><filter id="ao" x="651" y="694" width="84.792" height="83" filterUnits="userSpaceOnUse"><feOffset dx="10" dy="3" input="SourceAlpha"/><feGaussianBlur stdDeviation="3" result="ap"/><feFlood flood-opacity="0.161"/><feComposite operator="in" in2="ap"/><feComposite in="SourceGraphic"/></filter><clipPath id="ar"><rect width="1073" height="876"/></clipPath></defs><g id="aq" class="a"><path class="b" d="M286.214-79.939c132.981,0,289.578,19.755,274.35,104.862-2.032,11.357-9.644,49.483-17.831,93.555-11.288,60.769-23.655,132.838-23.655,160.164,0,53.391-232.147-113.817-232.864-55.243C284.344,376.031,445.678,698,318.5,698,142.6,698,0,541.747,0,349c0-47.194-106.146-177.446-48.494-219.241,39.819-28.866,245.464,30.682,259.707,0C260.332,23.946,183.31-79.939,286.214-79.939Z" transform="translate(113 152)"/><path class="b" d="M60.611,0C76.243,0,198.984-23.95,249.194,24.1c51.689,49.46,143.85,174.144,143.85,258.147,0,93.28-118.549,246.887-176.133,307.373C172.166,636.614,74.467,600,60.611,600c-31.707,0,68.135-117.216,68.135-282.9S28.9,0,60.611,0Z" transform="translate(638 240)"/><path class="c" d="M-5.34,8.508C26.523,8.512,20,15.894,20,35.5S.183,72.859-5.34,72.859,0,55.106,0,35.5-37.2,8.5-5.34,8.508Z" transform="translate(412 418)"/><g class="d" transform="translate(405 477)"><path class="bi" d="M 18.3728199005127 24.63671875 C 16.40077972412109 24.63671875 13.28588962554932 24.13846778869629 9.114649772644043 23.15580749511719 C 6.026309967041016 22.42825889587402 3.579119920730591 21.87561798095703 1.612759947776794 21.43156814575195 C -0.4911499917507172 20.95644760131836 -2.011260032653809 20.61316871643066 -3.030220031738281 20.34427833557129 C -3.789477825164795 20.1439266204834 -4.183165550231934 20.00534439086914 -4.38644552230835 19.91342163085938 C -4.225552558898926 19.78554153442383 -3.980162382125854 19.61902046203613 -3.769099950790405 19.47579765319824 C -2.973979949951172 18.93623924255371 -1.772390007972717 18.12084770202637 -0.7216200232505798 16.79278755187988 C 0.5315099954605103 15.2089786529541 1.272989988327026 13.25838851928711 1.48225998878479 10.99521827697754 C 1.900750041007996 6.469108581542969 1.271929979324341 4.166998386383057 1.003419995307922 3.183948278427124 C 0.999677836894989 3.170249462127686 0.9959017634391785 3.156425952911377 0.9921097755432129 3.142520904541016 C 1.058768153190613 3.156806468963623 1.129353523254395 3.172327041625977 1.200989961624146 3.1880784034729 C 2.298199892044067 3.429348468780518 4.581299781799316 3.931398391723633 8.989819526672363 3.931398391723633 L 9.000089645385742 3.931398391723633 L 9.022970199584961 3.931398391723633 C 11.53347015380859 3.931398391723633 13.21963024139404 4.003138542175293 14.32940006256104 4.157168388366699 C 15.61314964294434 4.335348129272461 15.7717399597168 4.585798263549805 15.78559970855713 4.613768577575684 C 15.79885005950928 4.640518188476562 15.79201984405518 4.750568389892578 15.67127990722656 4.975618362426758 C 15.51877021789551 5.259868144989014 15.25389003753662 5.607698440551758 14.94717025756836 6.010448455810547 C 14.04629993438721 7.193408489227295 12.8125 8.813538551330566 12.8125 10.94917869567871 C 12.8125 12.91173839569092 15.04911041259766 15.55566787719727 17.21208000183105 18.112548828125 C 18.31520080566406 19.41656875610352 19.35713958740234 20.64825820922852 20.06044960021973 21.72765922546387 C 20.92156028747559 23.04925918579102 20.94455909729004 23.666748046875 20.81221961975098 23.95204925537109 C 20.6074104309082 24.39356803894043 19.74107933044434 24.63671875 18.3728199005127 24.63671875 Z"/><path class="bj" d="M 1.678016662597656 3.801630020141602 C 1.972002029418945 5.066343307495117 2.32391357421875 7.323099136352539 1.980119705200195 11.0412483215332 C 1.493097305297852 16.3084831237793 -1.620273590087891 18.61403274536133 -3.29180908203125 19.755859375 C -2.241718292236328 20.04853057861328 -0.4637508392333984 20.45004844665527 1.722890853881836 20.94384765625 C 3.69025993347168 21.38812828063965 6.138710021972656 21.94104766845703 9.229299545288086 22.66912841796875 C 13.36301040649414 23.64294815063477 16.43932914733887 24.13671875 18.3728199005127 24.13671875 C 19.84421920776367 24.13671875 20.31110000610352 23.84413909912109 20.35864067077637 23.74163818359375 C 20.36038017272949 23.7378978729248 20.5219898223877 23.35190773010254 19.64151954650879 22.00061798095703 C 18.95524978637695 20.94735717773438 17.92309951782227 19.72723770141602 16.8303394317627 18.43546867370605 C 14.50699996948242 15.68900871276855 12.3125 13.09485816955566 12.3125 10.94917869567871 C 12.3125 8.644828796386719 13.60536956787109 6.947118759155273 14.5493803024292 5.707498550415039 C 14.7582483291626 5.433223724365234 15.0217113494873 5.087261199951172 15.17404842376709 4.840206146240234 C 14.95239734649658 4.769124984741211 14.54619026184082 4.675506591796875 13.82159042358398 4.599328994750977 C 12.74650001525879 4.486309051513672 11.17685985565186 4.431377410888672 9.022970199584961 4.431398391723633 L 9 4.431398391723633 L 8.989819526672363 4.431398391723633 C 5.194880485534668 4.431398391723633 2.95012378692627 4.062673568725586 1.678016662597656 3.801630020141602 M 0.5924148559570312 2.573415756225586 C 1.177223205566406 2.573415756225586 3.246242523193359 3.431398391723633 8.989816665649414 3.431398391723633 C 8.993877410888672 3.431398391723633 8.995935440063477 3.431398391723633 9 3.431398391723633 C 9.007316589355469 3.431396484375 9.015665054321289 3.431396484375 9.022968292236328 3.431396484375 C 22.31145477294922 3.431289672851562 13.3125 5.471609115600586 13.3125 10.94917869567871 C 13.3125 15.45868968963623 27.35227966308594 25.13671875 18.37281608581543 25.13671875 C 16.43917846679688 25.13671875 13.43862342834473 24.68813896179199 9 23.64248847961426 C -16.05078125 17.74102783203125 -0.1367206573486328 23.07395935058594 0.9843692779541016 10.94917869567871 C 1.621284484863281 4.060905456542969 -0.1774082183837891 2.573415756225586 0.5924148559570312 2.573415756225586 Z"/></g><g class="e" transform="matrix(0.809, -0.588, 0.588, 0.809, 359.124, 438.603)"><path class="bi" d="M 23.91819000244141 57.87459564208984 C 22.81659889221191 57.87459564208984 21.98975944519043 57.43586730957031 21.39041900634766 56.53334808349609 C 20.70014953613281 55.493896484375 20.35015869140625 53.88068771362305 20.35015869140625 51.73850631713867 C 20.35015869140625 49.77783584594727 20.29165840148926 47.473388671875 20.22972869873047 45.03362655639648 C 20.05979919433594 38.33988571166992 19.84832954406738 30.00931739807129 20.66795921325684 22.42177772521973 C 21.10989952087402 18.33065795898438 21.8237190246582 14.78266716003418 22.78957939147949 11.87636756896973 C 23.89229965209961 8.558277130126953 25.36693954467773 5.936807632446289 27.17253875732422 4.084787368774414 C 28.30027961730957 2.928057432174683 29.58676910400391 2.04091739654541 30.99625968933105 1.448007345199585 C 32.4916877746582 0.8189573884010315 34.17518997192383 0.4999974071979523 36 0.4999974071979523 C 40.82236862182617 0.4999974071979523 46.55680084228516 1.365407347679138 52.58337020874023 3.002657413482666 C 58.59391021728516 4.635557174682617 64.57199096679688 6.94768762588501 69.87132263183594 9.689087867736816 C 75.4874267578125 12.59434700012207 80.16536712646484 15.90660762786865 83.39942932128906 19.26777648925781 C 86.97663116455078 22.98556709289551 88.79042053222656 26.69567680358887 88.79042053222656 30.29506683349609 L 88.79042053222656 30.46135711669922 L 88.89000701904297 30.59451675415039 C 89.78070068359375 31.78547668457031 90.03302764892578 32.98464584350586 89.58230590820312 33.88455581665039 C 89.10910034179688 34.82936859130859 87.91664886474609 35.37124633789062 86.31069946289062 35.37124633789062 C 86.00244140625 35.37124633789062 85.67736053466797 35.3510856628418 85.34452056884766 35.31131744384766 C 85.13902282714844 35.28680801391602 84.90347290039062 35.27488708496094 84.62429809570312 35.27488708496094 C 82.97412109375 35.27488708496094 80.15638732910156 35.70045852661133 76.89372253417969 36.19320678710938 C 72.85721588134766 36.80283737182617 68.28215026855469 37.49380874633789 65.01876831054688 37.49399566650391 C 63.70941925048828 37.49406814575195 62.69916915893555 37.38060760498047 62.01607894897461 37.15674591064453 C 60.11457824707031 36.53347778320312 58.10574722290039 35.66377639770508 56.16305923461914 34.82271575927734 C 52.68227005004883 33.31574630737305 49.39450836181641 31.89235687255859 46.85152816772461 31.89235687255859 C 44.60345077514648 31.89235687255859 43.15555953979492 33.03676605224609 42.54809951782227 35.29380798339844 C 41.08039855957031 40.74711608886719 37.98001861572266 46.49404907226562 34.04192733764648 51.06102752685547 C 32.25114059448242 53.13779830932617 30.367919921875 54.86527633666992 28.59585952758789 56.05673599243164 C 26.82706832885742 57.24598693847656 25.20955848693848 57.87459564208984 23.91819000244141 57.87459564208984 Z"/><path class="bk" d="M 36 1 C 34.24213409423828 1 32.62385559082031 1.305793762207031 31.19013214111328 1.908882141113281 C 29.84261322021484 2.475730895996094 28.61135864257812 3.325241088867188 27.53054809570312 4.433830261230469 C 25.77817535400391 6.231239318847656 24.34273529052734 8.788330078125 23.26406860351562 12.03404998779297 C 22.30940246582031 14.90665054321289 21.60320281982422 18.41966247558594 21.16506958007812 22.47548675537109 C 20.34901428222656 30.0299186706543 20.56001281738281 38.342041015625 20.72955322265625 45.02094268798828 C 20.79158020019531 47.46396255493164 20.85015869140625 49.771484375 20.85015869140625 51.73849487304688 C 20.85015869140625 53.75178527832031 21.18101501464844 55.31417465209961 21.80694580078125 56.25674057006836 C 22.30645751953125 57.00894165039062 22.99705505371094 57.37459564208984 23.91819763183594 57.37459564208984 C 26.39742279052734 57.37459564208984 30.13150787353516 54.83026123046875 33.66326904296875 50.73450469970703 C 37.55400085449219 46.22244262695312 40.61642456054688 40.54716491699219 42.06529235839844 35.16386413574219 C 42.41112518310547 33.87887573242188 43.02045440673828 32.90609741210938 43.8763427734375 32.27255249023438 C 44.66537857055664 31.68849563598633 45.66636657714844 31.39235305786133 46.85152053833008 31.39235305786133 C 49.49810028076172 31.39235305786133 52.83204650878906 32.83573913574219 56.36174392700195 34.36387252807617 C 58.2940559387207 35.2004508972168 60.29215621948242 36.06550598144531 62.17178726196289 36.68161010742188 C 62.80429840087891 36.88889694213867 63.76216506958008 36.99399566650391 65.018798828125 36.99399566650391 C 68.24488830566406 36.99399566650391 72.80062103271484 36.30588531494141 76.82005310058594 35.69877624511719 C 80.10218811035156 35.20302963256836 82.93674468994141 34.77488708496094 84.62429046630859 34.77488708496094 C 84.92338562011719 34.77488708496094 85.17831420898438 34.7879524230957 85.40382385253906 34.81485366821289 C 85.71702575683594 34.85226440429688 86.02213287353516 34.87124252319336 86.31069183349609 34.87124252319336 C 87.72039794921875 34.87124252319336 88.74990844726562 34.42999649047852 89.13523101806641 33.66065216064453 C 89.37892913818359 33.1740837097168 89.35279083251953 32.55940628051758 89.07511901855469 31.89499664306641 C 87.99357604980469 31.84436798095703 87.63069152832031 30.29335021972656 87.63063049316406 29.87167358398438 C 87.63056945800781 29.38082122802734 87.87456512451172 29.03965377807617 88.1912841796875 28.86532592773438 C 87.77471160888672 25.84531402587891 86.04681396484375 22.74033355712891 83.03913116455078 19.61444091796875 C 79.84252166748047 16.29219818115234 75.209716796875 13.01362991333008 69.64157867431641 10.13317489624023 C 58.91648864746094 4.584983825683594 45.71137619018555 1 36 1 M 36 0 C 55.88224411010742 0 89.29042053222656 14.55493927001953 89.29042053222656 30.29506301879883 C 88.98126220703125 29.88259887695312 88.80088806152344 29.73105239868164 88.70903015136719 29.73107528686523 C 88.45436859130859 29.73114395141602 88.88028717041016 30.89625930786133 89.12961578369141 30.89625930786133 C 89.22217559814453 30.89625930786133 89.29042053222656 30.73556900024414 89.29042053222656 30.29506301879883 C 91.44471740722656 33.17564010620117 90.02429962158203 35.87124633789062 86.31069183349609 35.87124633789062 C 85.986083984375 35.87124633789062 85.64398193359375 35.85065460205078 85.28518676757812 35.80778503417969 C 85.09738922119141 35.78538131713867 84.87579345703125 35.77488708496094 84.62429046630859 35.77488708496094 C 80.96437835693359 35.77488708496094 70.9197998046875 37.99399185180664 65.018798828125 37.99399185180664 C 63.73228073120117 37.99399185180664 62.64401245117188 37.88869476318359 61.86036682128906 37.63188552856445 C 56.6002082824707 35.90769958496094 50.69700241088867 32.39235305786133 46.85152435302734 32.39235305786133 C 45.00144195556641 32.39235305786133 43.62786865234375 33.20578002929688 43.03092193603516 35.42375183105469 C 39.80958557128906 47.39275360107422 29.66228485107422 58.37459564208984 23.91819763183594 58.37459564208984 C 21.49078369140625 58.37459564208984 19.85015869140625 56.41422653198242 19.85015869140625 51.73849487304688 C 19.85015869140625 35.99838256835938 16.11775207519531 0 36 0 Z"/></g><path class="f" d="M46.5,0c4.289,0,12.978-1.976,17.2,0,19.4,9.081,19.1,37.546,19.1,73.891,0,14.4-4.5,30-6.582,35.883-3.946,11.145-.95,7.005-33.723,6.461-14.576-.242-10.991.409-14.773,0-7.955-.85,0,2.532,0-28.1,0-4.727-1.191-6.329,0-14.247,1.309-8.7-1.945-22.142-6.673-27.495C19.457,27.176,18.786,9,27.715,0,34.442-6.783,37.845,0,46.5,0Z" transform="translate(370 500)"/><g class="g" transform="matrix(1, 0.017, -0.017, 1, 384.381, 616.434)"><path class="bi" d="M 51.97930908203125 43.96171188354492 C 49.51477813720703 43.96171188354492 46.60335159301758 43.5847282409668 43.52068710327148 43.18558120727539 C 39.73872756958008 42.69589233398438 35.45216751098633 42.14087295532227 30.98147773742676 42.14087295532227 C 26.75667762756348 42.14087295532227 23.17026710510254 42.52791213989258 20.00603675842285 42.86939239501953 C 17.50090599060059 43.13974380493164 15.33740711212158 43.37323379516602 13.31549644470215 43.37323379516602 C 11.2361364364624 43.37323379516602 9.550597190856934 43.11910247802734 8.01099681854248 42.57346343994141 C 5.90882682800293 41.83422088623047 4.305896759033203 40.88485336303711 3.109476804733276 39.67071151733398 C 1.37511682510376 37.91066360473633 0.4957267940044403 35.56440353393555 0.4957267940044403 32.69708251953125 C 0.4957267940044403 31.34512329101562 0.4753967821598053 29.95334243774414 0.4538667798042297 28.47984313964844 C 0.3856967985630035 23.81332206726074 0.308436781167984 18.52417182922363 0.9309467673301697 13.60611248016357 C 1.654526829719543 7.87534236907959 3.710566759109497 3.960062503814697 7.40144681930542 1.284322500228882 C 8.992007255554199 0.1305224597454071 11.73005676269531 -0.4303175508975983 15.77220726013184 -0.4303175508975983 C 18.58420753479004 -0.4303175508975983 21.56881713867188 -0.1721875369548798 24.45515632629395 0.07744245976209641 C 26.87743759155273 0.2869324684143066 29.16537666320801 0.484812468290329 30.98147773742676 0.484812468290329 C 33.04123687744141 0.484812468290329 35.76621627807617 0.1134424656629562 38.65120697021484 -0.2797275483608246 C 41.95919799804688 -0.7305475473403931 45.70855712890625 -1.241517543792725 48.94957733154297 -1.241517543792725 C 52.28649520874023 -1.241517543792725 54.62853622436523 -0.7088975310325623 56.10954666137695 0.3867724537849426 C 56.69548797607422 0.8199724555015564 57.27602767944336 1.039572477340698 57.83515548706055 1.039572477340698 C 59.27443695068359 1.039572477340698 60.12895584106445 -0.337567538022995 60.69439697265625 -1.248847484588623 C 60.71456146240234 -1.281347870826721 60.7358283996582 -1.315619707107544 60.75768661499023 -1.350652456283569 C 60.80050277709961 -1.068533539772034 60.84861373901367 -0.650068461894989 60.89680862426758 -0.02935753762722015 C 61.36572647094727 5.988312244415283 61.46722793579102 27.65617179870605 61.46722793579102 32.69708251953125 C 61.46722793579102 37.08251190185547 60.6341552734375 40.05845260620117 58.92040634155273 41.79496383666992 C 57.44176864624023 43.29324340820312 55.30156707763672 43.96149063110352 51.98097610473633 43.96171188354492 C 51.98052597045898 43.96171188354492 51.97976303100586 43.96171188354492 51.97930908203125 43.96171188354492 Z"/><path class="bl" d="M 48.94960784912109 -0.74151611328125 C 45.74267578125 -0.7414093017578125 42.01136779785156 -0.2329292297363281 38.71930694580078 0.2156829833984375 C 35.81680679321289 0.6112136840820312 33.07528686523438 0.9848136901855469 30.98147773742676 0.9848136901855469 C 29.14379501342773 0.9848136901855469 26.84541702270508 0.7860336303710938 24.41207504272461 0.5755805969238281 C 21.53630828857422 0.3268623352050781 18.56262588500977 0.06968307495117188 15.7722053527832 0.06968307495117188 C 11.83924865722656 0.06968307495117188 9.197216033935547 0.5993537902832031 7.694915771484375 1.689144134521484 C 4.123737335205078 4.278091430664062 2.132068634033203 8.084644317626953 1.426975250244141 13.66889190673828 C 0.8088951110839844 18.55204200744629 0.8858871459960938 23.82248306274414 0.9538154602050781 28.47251319885254 C 0.9753684997558594 29.94790267944336 0.9957275390625 31.34146118164062 0.9957275390625 32.69708251953125 C 0.9957275390625 35.42840194702148 1.826717376708984 37.65659332275391 3.465618133544922 39.31977081298828 C 4.607418060302734 40.47848129272461 6.148097991943359 41.38835144042969 8.178005218505859 42.10218048095703 C 9.662326812744141 42.62822341918945 11.29479598999023 42.87323379516602 13.31548690795898 42.87323379516602 C 15.31049728393555 42.87323379516602 17.46160507202148 42.64108276367188 19.95237731933594 42.37228393554688 C 23.12914657592773 42.02945327758789 26.72976684570312 41.64087295532227 30.98147773742676 41.64087295532227 C 35.48491668701172 41.64087295532227 39.78889465332031 42.19811248779297 43.58622741699219 42.68974304199219 C 46.65251541137695 43.08674240112305 49.54875564575195 43.46171188354492 51.98100662231445 43.46171188354492 C 55.15693664550781 43.46171188354492 57.18735504150391 42.83940124511719 58.56451797485352 41.44391250610352 C 60.18129730224609 39.80561065673828 60.96722793579102 36.94450378417969 60.96722793579102 32.69708251953125 C 60.96722793579102 27.67727851867676 60.86667633056641 6.159008026123047 60.40307998657227 0.07129669189453125 C 59.81058883666992 0.8259925842285156 58.98921203613281 1.539573669433594 57.83515548706055 1.539573669433594 C 57.16667556762695 1.539573669433594 56.48613739013672 1.287014007568359 55.81216812133789 0.7887229919433594 C 54.42018890380859 -0.2410774230957031 52.1754264831543 -0.7416267395019531 48.94960784912109 -0.74151611328125 M 60.90822982788086 -2.277374267578125 C 61.1231575012207 -2.277439117431641 61.26777648925781 -1.710575103759766 61.39530563354492 -0.06807708740234375 C 61.85492706298828 5.830402374267578 61.96722793579102 27.00642204284668 61.96722793579102 32.69708251953125 C 61.96722793579102 42.20889663696289 58.12013244628906 44.46171188354492 51.98101043701172 44.46171188354492 C 46.45964431762695 44.46171188354492 39.08464050292969 42.64087295532227 30.98147773742676 42.64087295532227 C 23.47843933105469 42.64087295532227 17.96652984619141 43.87322998046875 13.31548690795898 43.87322998046875 C 11.36832427978516 43.87322998046875 9.572681427001953 43.65739822387695 7.843967437744141 43.04474258422852 C 4.733257293701172 41.95084381103516 -0.0042724609375 39.52630233764648 -0.0042724609375 32.69708251953125 C -0.0042724609375 26.91733169555664 -0.3827743530273438 20.00327301025391 0.4348983764648438 13.54332160949707 C 1.129035949707031 8.045753479003906 3.068984985351562 3.807601928710938 7.107975006103516 0.8795127868652344 C 9.0289306640625 -0.5139694213867188 12.22108840942383 -0.9303131103515625 15.7722053527832 -0.9303131103515625 C 21.03914260864258 -0.9303131103515625 27.0973014831543 -0.01518630981445312 30.98147773742676 -0.01518630981445312 C 35.38492202758789 -0.01518630981445312 42.88421630859375 -1.741306304931641 48.94957733154297 -1.74151611328125 C 51.98281478881836 -1.741622924804688 54.65660858154297 -1.310092926025391 56.40691757202148 -0.01518630981445312 C 56.94137191772461 0.3799476623535156 57.41487503051758 0.5395736694335938 57.83516311645508 0.5395736694335938 C 59.60102081298828 0.5395736694335938 60.42916107177734 -2.277225494384766 60.90822982788086 -2.277374267578125 Z"/></g><g class="h" transform="translate(375 609)"><ellipse class="bi" cx="29.5" cy="26.5" rx="29.5" ry="26.5"/><ellipse class="bm" cx="29.5" cy="26.5" rx="29" ry="26"/></g><path class="i" d="M0,0H29V162H24.316Z" transform="translate(417 654)"/><g class="j" transform="translate(387.506 609)"><path class="bi" d="M 57.99435806274414 45.76953506469727 L 6.602856636047363 45.76953506469727 L 6.602856636047363 0.5000056028366089 L 57.99435806274414 0.5000056028366089 L 57.99435806274414 45.76953506469727 Z"/><path class="bn" d="M 7.102855682373047 0.9999961853027344 L 7.102855682373047 45.26952743530273 L 57.49435806274414 45.26952743530273 L 57.49435806274414 0.9999961853027344 L 7.102855682373047 0.9999961853027344 M 6.102855682373047 -3.814697265625e-06 L 58.49435806274414 -3.814697265625e-06 L 58.49435806274414 46.26952743530273 L 6.102855682373047 46.26952743530273 L 6.102855682373047 -3.814697265625e-06 Z"/></g><path class="k" d="M0,0H29L6.742,162H0Z" transform="translate(386 654)"/><g class="l" transform="matrix(0.891, -0.454, 0.454, 0.891, 407.112, 517.241)"><path class="bi" d="M 30.33187294006348 108.21533203125 C 29.27711486816406 108.21533203125 28.62991142272949 107.33349609375 28.5175609588623 105.7745819091797 C 30.10561370849609 105.8179931640625 30.97892951965332 106.0585479736328 31.44090270996094 106.2634429931641 C 31.71090316772461 106.3832015991211 32.16384506225586 106.6370162963867 32.16384506225586 106.9915008544922 C 32.16384506225586 107.5258712768555 31.27545928955078 108.21533203125 30.33187294006348 108.21533203125 Z M 27.50000190734863 97.47265625 L 0.460233211517334 48.02456283569336 L -4.733026504516602 32.42741775512695 L -4.733026504516602 14.04560375213623 C -4.733026504516602 12.31577491760254 -3.996511936187744 10.58634662628174 -2.543926239013672 8.905332565307617 C -1.193812012672424 7.342903614044189 0.7870451211929321 5.838460445404053 3.18448805809021 4.554646492004395 C 5.486959457397461 3.321703433990479 8.158816337585449 2.295860767364502 10.91121673583984 1.588017821311951 C 13.67898845672607 0.8762320876121521 16.47604560852051 0.5000035166740417 19.00000190734863 0.5000035166740417 L 28.00000190734863 0.5000035166740417 C 30.32658767700195 0.5000035166740417 31.68935966491699 0.81731778383255 32.05048751831055 1.443132042884827 C 32.49191665649414 2.208117723464966 31.58805847167969 3.77201771736145 30.54147338867188 5.582846164703369 C 29.18641662597656 7.927403450012207 27.50000190734863 10.84528923034668 27.50000190734863 14.04560375213623 L 27.50000190734863 97.47265625 Z"/><path class="bo" d="M 19.00000381469727 1 C 8.759017944335938 1 -4.233028411865234 7.142250061035156 -4.233028411865234 14.04560089111328 L -4.233028411865234 32.34640502929688 L 0.9204330444335938 47.82401275634766 L 27.00000381469727 95.51616668701172 L 27.00000381469727 14.04560089111328 C 27.00000381469727 10.71118927001953 28.72361946105957 7.72894287109375 30.10857200622559 5.332664489746094 C 30.68123435974121 4.341804504394531 31.17581939697266 3.486076354980469 31.45327949523926 2.775413513183594 C 31.65555763244629 2.25732421875 31.71538734436035 1.862800598144531 31.61741828918457 1.693031311035156 C 31.55063438415527 1.577308654785156 31.06238746643066 1 28.00000381469727 1 L 19.00000381469727 1 M 29.08622741699219 106.3002624511719 C 29.22235870361328 107.0285491943359 29.55638694763184 107.7153244018555 30.33186531066895 107.7153244018555 C 30.65923309326172 107.7153244018555 31.02535629272461 107.5950927734375 31.31124877929688 107.3936920166016 C 31.54305267333984 107.2304153442383 31.64265441894531 107.069450378418 31.66095352172852 107.0039749145508 C 31.60179138183594 106.9267196655273 31.14023017883301 106.4326095581055 29.08622741699219 106.3002624511719 M 19.00000381469727 0 L 28.00000381469727 0 C 38.49340438842773 0 28.00000381469727 6.288429260253906 28.00000381469727 14.04560089111328 L 28.00000381469727 99.42915344238281 L 3.814697265625e-06 48.22507476806641 L -5.233028411865234 32.50849151611328 L -5.233028411865234 14.04560089111328 C -5.233028411865234 6.288429260253906 8.506587982177734 0 19.00000381469727 0 Z M 28.37605857849121 97.91670227050781 C 28.4963493347168 97.91670227050781 28.1618766784668 100.8524780273438 28.00000381469727 103.0146713256836 L 28.00000381469727 99.42915344238281 C 28.21635246276855 98.35051727294922 28.32981109619141 97.91670227050781 28.37605857849121 97.91670227050781 Z M 28.00000381469727 103.0146713256836 L 28.00000381469727 105.267692565918 C 27.8729419708252 105.1908645629883 27.90950393676758 104.2234954833984 28.00000381469727 103.0146713256836 Z M 28.00000381469727 105.267692565918 C 34.99581527709961 105.267692565918 32.6638069152832 108.7153244018555 30.33187103271484 108.7153244018555 C 29.16600799560547 108.7153244018555 28.00000381469727 107.8532562255859 28.00000381469727 105.267692565918 Z"/></g><path class="f" d="M17.743,0c9.8,0,17.743,8.283,17.743,18.5s-13.3,31.178-23.1,31.178S0,28.717,0,18.5,7.944,0,17.743,0Z" transform="translate(383.514 502)"/><path class="f" d="M0,0H32L0,68.32H0Z" transform="matrix(0.788, 0.616, -0.616, 0.788, 390.819, 509.991)"/><g class="d" transform="matrix(0.469, 0.883, -0.883, 0.469, 369.426, 552.795)"><path class="bi" d="M 0.4999986588954926 22.3106632232666 L 0.4999986588954926 0.5000054836273193 L 54.82026672363281 0.5000054836273193 L 0.4999986588954926 22.3106632232666 Z"/><path class="bj" d="M 1 0.9999961853027344 L 1 21.57108497619629 L 52.23307800292969 0.9999961853027344 L 1 0.9999961853027344 M 0 -3.814697265625e-06 L 57.40741729736328 -3.814697265625e-06 L 0 23.05020523071289 L 0 -3.814697265625e-06 Z"/></g><g class="cl" transform="matrix(1, 0, 0, 1, 0, 0)"><path class="m" d="M14.22-1.249c14.644,12.223,14.221,5.19,14.221,11.591s1.789,0-6.065,0S0,16.744,0,10.342-.423-13.471,14.22-1.249Z" transform="translate(437.16 821.49)"/></g><g class="ck" transform="matrix(1, 0, 0, 1, 0, 0)"><path class="m" d="M15.969-1.249c16.444,12.223,15.97,5.189,15.97,11.591s2.009,0-6.811,0S0,16.744,0,10.342-.475-13.471,15.969-1.249Z" transform="translate(381.16 821.49)"/></g><g class="n" transform="translate(360 830)"><rect class="bi" width="122" height="28"/><rect class="bm" x="0.5" y="0.5" width="121" height="27"/></g><path class="f" d="M194.5,280.821c10.16-6.957,11.227-17.747,15.066-23.868,16.415-6.161,10.906-15.859,19.7-15.131,6.449.534,2.369,18.121,6.225,26.171,3.759,7.844-10.39,13.363-10.39,13.363l.059-3.375" transform="matrix(-1, 0.017, -0.017, -1, 424.71, 741.934)"/><path class="f" d="M204.843,275.935c26.7-19,10.3-26.875,21.781-25.888,5.627.484.278,8.964,3.643,16.261,3.28,7.111-9.067,12.113-9.067,12.113l.051-3.06" transform="translate(-39.04 685.675) rotate(-88)"/><path class="f" d="M18-16.067c5.885,0,9.223-3.321,10.494,3.906C29.114-8.639,40.668,5.124,42.9,14.985c.518,2.28-5.485,7.392-5.485,8.515,0,5.282,12.064-5.289,9.521-4.389-1.766.637-13.654,16.22-18.446,18.318-2.858,1.252-2.434,6.213-4.851,6.213C13.7,43.642,0,36.479,0,23.5c0-7,8.9-26.784,12.732-35.661C15.793-19.256,13.417-16.067,18-16.067Z" transform="translate(169 510)"/><path class="f" d="M16.5,0c3.9,0-3.047-13.879,0-10.917C18.379-9.094,19.851,12.84,23.816,20,27.091,25.913,33,17.024,33,20,33,31.046,16.215,50.7,7.1,50.7S-16.236,44.926-16.236,33.88C-16.236,27.352-4.213,3.849,0,0,2.541-2.327,12.773,0,16.5,0Z" transform="translate(233 502)"/><path class="o" d="M0-.8,8.979-4.487,16.359,14.8,7.546,8.812,0,14.8Z" transform="translate(207.578 524.13) rotate(11)"/><g class="p" transform="translate(183 531)"><path class="bi" d="M 57.01461791992188 106.563117980957 L 3.464845180511475 106.563117980957 L 13.24204635620117 68.70106506347656 L 13.26572608947754 68.60938262939453 L 13.25423336029053 68.515380859375 L 7.203015327453613 19.00897026062012 L 28.20059967041016 1.545503377914429 L 57.0470085144043 19.05137634277344 L 50.22481918334961 60.90354156494141 L 50.21227264404297 60.98058319091797 L 50.22379302978516 61.05778121948242 L 57.01461791992188 106.563117980957 Z"/><path class="bp" d="M 28.24609756469727 2.157974243164062 L 7.732410430908203 19.218994140625 L 13.75053405761719 68.45471954345703 L 13.77350234985352 68.6427001953125 L 13.72616195678711 68.82608032226562 L 4.110359191894531 106.063102722168 L 56.43447494506836 106.063102722168 L 49.7292594909668 61.13157653808594 L 49.70621871948242 60.97717666625977 L 49.73133087158203 60.82308959960938 L 56.49927139282227 19.30384063720703 L 28.24609756469727 2.157974243164062 M 28.15509033203125 0.9330062866210938 L 57.59477615356445 18.79891967773438 L 50.71830368041992 60.98397827148438 L 57.59477615356445 107.063102722168 L 2.819316864013672 107.063102722168 L 12.75791931152344 68.5760498046875 L 6.673618316650391 18.79891967773438 L 28.15509033203125 0.9330062866210938 Z"/></g><ellipse class="q" cx="7" cy="16.5" rx="7" ry="16.5" transform="translate(229 547)"/><path class="r" d="M15,0c5.045,0-4.405,4.841-6.085,14.1-1,5.507,0,17.65,0,26.4C8.915,62.868,23.284,81,15,81c-1.839,0,1.835,1.848,0,0C9.5,75.482-4.981,62.636-4.981,45.234-4.981,22.867,6.716,0,15,0Z" transform="translate(176 553)"/><path class="s" d="M25.394,13.955c14.025,0,8.233-.064,8.233,14.328,0,4.951-3.635,6.891-3.281,11.144.6,7.206,4.249,14.915-4.951,14.915C11.369,54.342,0,42.675,0,28.283S11.369,13.955,25.394,13.955Z" transform="translate(188.836 618.306) rotate(11)"/><path class="q" d="M0,0H15L8.454,17.334l1.806,17.12L0,33-7.264,18.106Z" transform="matrix(0.899, 0.438, -0.438, 0.899, 190.992, 547.382)"/><path class="s" d="M0,0H52l4.368,39.329L0,25Z" transform="translate(189 635)"/><path class="s" d="M0,0H29L22.58,156H16.819Z" transform="translate(184 660)"/><path class="m" d="M0-5.608,27,0,41.026,74.034,6.194,148H0L14.011,74.034Z" transform="translate(217 668)"/><g class="cj" transform="matrix(1, 0, 0, 1, 0, 0)"><path class="f" d="M12.5,0c6.9,0,0,.441,0,6.793S28.83,18.13,21.926,18.13,0,17.851,0,11.5,5.6,0,12.5,0Z" transform="translate(208 815)"/></g><path class="f" d="M8.5,0C13.194,0,17,4.253,17,9.5s-3.806,5.1-8.5,5.1S0,14.747,0,9.5,3.806,0,8.5,0Z" transform="translate(194 815)"/><path class="o" d="M0,0,39.569-17.4h0L33.11-5.249l-11,10.964L4.779,11.759Z" transform="matrix(0.469, 0.883, -0.883, 0.469, 239.872, 577.633)"/><line class="t" x1="3" y1="3" transform="translate(286.5 602.5)"/><g class="ci" transform="matrix(1, 0, 0, 1, 0, 0)"><rect class="u" width="30" height="39" transform="translate(267.73 580.23) rotate(22)"/></g><line class="v" x1="4" y1="4" transform="translate(283.5 605.5)"/><g class="ch" transform="matrix(1, 0, 0, 1, 0, 0)"><g class="w" transform="translate(491 366)"><rect class="bi" width="244" height="484"/><rect class="bm" x="4" y="4" width="236" height="476"/></g></g><line class="v" x1="6" y1="6" transform="translate(281.5 608.5)"/><g class="d" transform="translate(465.777 571.46) rotate(-25)"><path class="bi" d="M 0.5000011920928955 22.22352027893066 L 0.5000011920928955 0.5000054836273193 L 41.93470764160156 0.5000054836273193 L 0.5000011920928955 22.22352027893066 Z"/><path class="bj" d="M 1 0.9999961853027344 L 1 21.39681625366211 L 39.90421676635742 0.9999961853027344 L 1 0.9999961853027344 M 0 -3.814697265625e-06 L 43.96520233154297 -3.814697265625e-06 L 0 23.05020523071289 L 0 -3.814697265625e-06 Z"/></g><path class="o" d="M26.192,0C40.67,0,52.406,13.879,52.406,31c0,13.166-6.94,24.415-16.994,29.028A22.287,22.287,0,0,1,26.192,62C11.715,62-.021,48.121-.021,31c0-2.893-.693-2.606,0-5.536C3,12.673,14.162,0,26.192,0Z" transform="translate(191 466)"/><g class="cg" transform="matrix(1, 0, 0, 1, 0, 0)"><rect class="x" width="49" height="470" transform="translate(678 374)"/></g><line class="y" x2="219" transform="translate(503.5 463.5)"/><line class="y" x2="219" transform="translate(503.5 572.5)"/><line class="y" x2="219" transform="translate(503.5 670.5)"/><line class="y" x2="219" transform="translate(503.5 768.5)"/><line class="z" x2="88" transform="translate(943.5 544.5)"/><g class="cf" transform="matrix(1, 0, 0, 1, 0, 0)"><g class="g" transform="translate(944 474)"><path class="bi" d="M 58.01921844482422 63.5 L 1.93581759929657 63.5 L 17.92205619812012 1.5 L 74.06245422363281 1.5 L 58.01921844482422 63.5 Z"/><path class="bq" d="M 19.08435440063477 3 L 3.87164306640625 62 L 56.85795593261719 62 L 72.12490844726562 3 L 19.08435440063477 3 M 16.75976181030273 0 L 76 0 L 59.18047332763672 65 L 0 65 L 16.75976181030273 0 Z"/></g></g><path class="u" d="M9.452,11.571H55.736L43.852,58.107H-2.782Z" transform="translate(956.022 472)"/><g class="ce" transform="matrix(1, 0, 0, 1, 0, 0)"><path class="b" d="M-1.17,0H23.5V14H-5.6Z" transform="translate(1008 525)"/></g><g class="aa" transform="translate(82 298)"><rect class="bi" width="235" height="163" rx="5"/><rect class="bm" x="7" y="7" width="221" height="149" rx="2"/></g><path class="ab" d="M55.5,0C86.152,0,126,37.609,126,66.051S86.152,83.484,55.5,83.484,32.4,79.943,32.4,51.5c0-15.473-2.234-29.352.753-39.076C35.488,4.795,41.523,0,55.5,0Z" transform="translate(58 366)"/><path class="ab" d="M24.9,14.433,102.168,0,50.456,39.028,0,74.792Z" transform="translate(168.946 389.471) rotate(36)"/><path class="f" d="M25.768,0C41.036,0,58.524,14.477,58.524,20c0,2.64,3.144,32.367-2.971,31.74-1.835-.188-10.917,1.976-12.372-5.464a23.892,23.892,0,0,1,0-10.807C37.477,27.566,29.9,20,25.768,20c-4.355,0-4.712,11.782-8.981,19.9C12.361,48.32.879,53.092-1.875,51.74c-1.689-.827-13.043-15.833-13.438-26.789C-15.635,16.047-1.875,11.03-1.875,10-1.875,4.477,10.5,0,25.768,0Z" transform="translate(194.413 454)"/><path class="ab" d="M33.615-9.351c9.837,0-4.892-17.736,7.5-5.65C49.636-6.687,87.735,36.531,87.735,46.87c0,9.891-12.793,15.048-22.111,21.583C52.157,77.9,40.641,90,30.5,90,13.655,90,0,69.853,0,45S16.77-9.351,33.615-9.351Z" transform="matrix(0.799, 0.602, -0.602, 0.799, 261.223, 357.706)"/><circle class="i" cx="4" cy="4" r="4" transform="translate(174 332)"/><circle class="u" cx="4" cy="4" r="4" transform="translate(211 366)"/><circle class="u" cx="4" cy="4" r="4" transform="translate(114 328)"/><circle class="ac" cx="4" cy="4" r="4" transform="translate(280 317)"/><g class="ad" transform="translate(88 305)"><rect class="bi" width="221" height="150"/><rect class="bm" x="5.5" y="5.5" width="210" height="139"/></g><g class="ae" transform="translate(184 366)"><ellipse class="bi" cx="17" cy="11.5" rx="17" ry="11.5"/><ellipse class="bm" cx="17" cy="11.5" rx="16.5" ry="11"/></g><circle class="af" cx="14" cy="14" r="14" transform="matrix(0.616, 0.788, -0.788, 0.616, 171.413, 347.349)"/><circle class="ag" cx="19" cy="19" r="19" transform="translate(203.026 344.724) rotate(79)"/><g class="cd" transform="matrix(1, 0, 0, 1, 0, 0)"><rect class="ac" width="16" height="87" transform="translate(499 374)"/></g><rect class="f" width="16" height="87" transform="matrix(0.974, -0.225, 0.225, 0.974, 508.42, 376.914)"/><rect class="i" width="6" height="87" transform="translate(509 374)"/><g class="cc" transform="matrix(1, 0, 0, 1, 0, 0)"><rect class="u" width="16" height="81" transform="matrix(0.97, -0.22, 0.22, 0.97, 524.77, 381.76)"/></g><rect class="ag" width="13" height="85" transform="translate(559 374)"/><rect class="ah" width="13" height="85" transform="translate(572 374)"/><rect class="ai" width="13" height="85" transform="translate(585 374)"/><rect class="aj" width="13" height="85" transform="matrix(-0.017, 1, -1, -0.017, 693.107, 447.743)"/><rect class="ak" width="13" height="85" transform="matrix(-0.017, 1, -1, -0.017, 693.107, 433.743)"/><g class="al" transform="matrix(-0.017, 1, -1, -0.017, 693.107, 420.743)"><rect class="bi" width="13" height="85"/><rect class="bm" x="0.5" y="0.5" width="12" height="84"/></g><g class="al" transform="matrix(-0.017, 1, -1, -0.017, 678.074, 412.481)"><rect class="bi" width="11" height="70"/><rect class="bm" x="0.5" y="0.5" width="10" height="69"/></g><g class="al" transform="matrix(-0.017, 1, -1, -0.017, 678.074, 400.481)"><rect class="bi" width="11" height="70"/><rect class="bm" x="0.5" y="0.5" width="10" height="69"/></g><rect class="am" width="13" height="85" transform="translate(712.727 373.627) rotate(13)"/><g class="cb" transform="matrix(1, 0, 0, 1, 0, 0)"><rect class="an" width="13" height="85" transform="translate(499.01 488.02) rotate(-11)"/></g><g class="ca" transform="matrix(1, 0, 0, 1, 0, 0)"><rect class="ao" width="13" height="85" transform="translate(528 484)"/></g><rect class="ap" width="13" height="85" transform="translate(541 484)"/><g class="bz" transform="matrix(1, 0, 0, 1, 0, 0)"><g class="al" transform="translate(554 484)"><rect class="bi" width="13" height="85"/><rect class="bm" x="0.5" y="0.5" width="12" height="84"/></g></g><g class="by" transform="matrix(1, 0, 0, 1, 0, 0)"><rect class="ag" width="53" height="76" transform="translate(585 493)"/></g><g class="al" transform="translate(603 493)"><rect class="bi" width="53" height="76"/><rect class="bm" x="0.5" y="0.5" width="52" height="75"/></g><rect class="aq" width="53" height="76" transform="translate(616 493)"/><g class="bx" transform="matrix(1, 0, 0, 1, 0, 0)"><rect class="ar" width="53" height="76" transform="translate(638 493)"/></g><rect class="f" width="13" height="85" transform="translate(711.229 579.541) rotate(11)"/><rect class="as" width="13" height="85" transform="translate(697.229 579.541) rotate(11)"/><g class="al" transform="matrix(-0.017, 1, -1, -0.017, 678.074, 654.481)"><rect class="bi" width="11" height="70"/><rect class="bm" x="0.5" y="0.5" width="10" height="69"/></g><g class="al" transform="matrix(-0.017, 1, -1, -0.017, 678.074, 642.481)"><rect class="bi" width="11" height="70"/><rect class="bm" x="0.5" y="0.5" width="10" height="69"/></g><g class="al" transform="matrix(-0.017, 1, -1, -0.017, 678.074, 630.481)"><rect class="bi" width="11" height="70"/><rect class="bm" x="0.5" y="0.5" width="10" height="69"/></g><rect class="as" width="11" height="70" transform="matrix(-0.017, 1, -1, -0.017, 669.074, 618.481)"/><g class="bw" transform="matrix(1, 0, 0, 1, 0, 0)"><path class="q" d="M11.892,0H23.847V23.966l2.52,21.4H8.117l3.775-21.4Z" transform="translate(522 617)"/></g><g class="bv" transform="matrix(1, 0, 0, 1, 0, 0)"><path class="q" d="M14.5,6.045C22.508,6.045,29,6.268,29,14A14.257,14.257,0,0,1,14.5,28,14.257,14.257,0,0,1,0,14C0,6.268,6.492,6.045,14.5,6.045Z" transform="translate(525 639)"/></g><path class="at" d="M529.242,486.029c8.652,4.988,0,1.708,0,1.708l4.733,6.974h-4.733" transform="translate(4 167)"/><line class="au" x1="2" y1="11" transform="translate(534.5 605.5)"/><line class="av" y1="15" transform="translate(539.5 602.5)"/><line class="aw" y1="13" x2="4" transform="translate(543.5 604.5)"/><path class="i" d="M15.5,5.653c4.605,0-.978-5.769,2.126-4.154C19.8,2.619,31,10.8,31,14.5c0,1.344-4.16,1.455-4.508,3.552-.829,5.019.982,12.963-2.642,14.951-2.04,1.124-5.491-7.812-8.351-7.812-4.631,0-9.21,3.43-12.3,1.259C1.04,24.945-4.8,23.65-4.8,19.975-4.8,14.225-1.249,3.89,5.618,1.5,7.916.7,13.086,5.653,15.5,5.653Z" transform="translate(527 582)"/><ellipse class="ax" cx="8" cy="6.5" rx="8" ry="6.5" transform="translate(532 586)"/><ellipse class="ay" cx="9.5" cy="6" rx="9.5" ry="6" transform="matrix(0.53, 0.848, -0.848, 0.53, 534.554, 593.764)"/><ellipse class="az" cx="6.5" cy="6" rx="6.5" ry="6" transform="translate(545 598)"/><circle class="s" cx="6.5" cy="6.5" r="6.5" transform="translate(519 586)"/><ellipse class="ba" cx="5.5" cy="6.5" rx="5.5" ry="6.5" transform="translate(548 586)"/><g class="bu" transform="matrix(1, 0, 0, 1, 0, 0)"><g class="bb" transform="translate(799 327)"><circle class="bi" cx="39" cy="39" r="39"/><circle class="bm" cx="39" cy="39" r="35"/></g></g><g class="bt" transform="matrix(1, 0, 0, 1, 0, 0)"><line class="bc" y1="15" x2="14" transform="translate(829.5 360.5)"/></g><line class="bd" x1="5" y1="5" transform="translate(831.5 358.5)"/><g class="bs" transform="matrix(1, 0, 0, 1, 0, 0)"><line class="be" x2="11" transform="translate(842.5 366.5)"/></g><g class="bf" transform="translate(835 362)"><circle class="bi" cx="4" cy="4" r="4"/><circle class="bm" cx="4" cy="4" r="3"/></g><circle class="ak" cx="4" cy="4" r="4" transform="translate(964 484)"/><circle class="o" cx="3" cy="3" r="3" transform="translate(985 510)"/><circle class="ag" cx="6" cy="6" r="6" transform="translate(966 501)"/><line class="bg" x2="7" y2="15" transform="translate(999.5 484.5)"/><line class="bh" x2="6" y2="13" transform="translate(996.5 486.5)"/><g class="br" transform="matrix(1, 0, 0, 1, 0, 0)"><g class="g" transform="translate(651 700)"><path class="bi" d="M 57.82531356811523 63.5 L 1.668879985809326 63.5 L 8.296021461486816 1.5 L 64.13150787353516 1.5 L 57.82531356811523 63.5 Z"/><path class="bq" d="M 9.644241333007812 3 L 3.337757110595703 62 L 56.47014236450195 62 L 62.47119140625 3 L 9.644241333007812 3 M 6.94781494140625 0 L 65.79180145263672 0 L 59.18048095703125 65 L -7.62939453125e-06 65 L 6.94781494140625 0 Z"/></g></g><path class="u" d="M2.143,11.571H43.852V58.107H-2.782Z" transform="translate(663.022 698)"/><circle class="ag" cx="6" cy="6" r="6" transform="translate(663 743)"/><path class="bh" d="M0,0,3,6.5,6,13" transform="translate(699.5 711.5)"/><line class="bh" x2="6" y2="13" transform="translate(677.5 731.5)"/></g></svg>