<svg xmlns="http://www.w3.org/2000/svg" xmlns:xlink="http://www.w3.org/1999/xlink" viewBox="0 0 660 117"><defs><style>.a{clip-path:url(#b);}.b,.o{fill:#fff;}.c{fill:#85e5e5;}.d{fill:#56e4d5;}.e{fill:#82ebe0;}.f{fill:#6ce7db;}.g{fill:#f5f5a4;}.h{fill:#cae3f2;}.i{fill:#9aeaea;}.j{fill:#70e1e1;}.k,.l,.n,.q{fill:none;}.k{stroke:#707070;}.l{stroke:#0af;}.m,.p,.s{fill:#e79256;}.n,.q{stroke:#5f9f5f;}.q{stroke-linecap:round;}.r,.s,.t{stroke:none;}.t{fill:#707070;}.u{fill:rgba(184,226,252,0.59);}</style><clipPath id="b"><rect width="660" height="117"/></clipPath></defs><g id="a" class="a"><rect class="u" width="660" height="117"/><circle class="b" cx="27" cy="27" r="27" transform="translate(303 32)"/><rect class="c" width="49" height="41" transform="translate(152.459 46.955) rotate(41)"/><path class="d" d="M43,0a43,43,0,0,1,0,86C19.252,86-6.566,85.379-6.566,61.631c0-10-19.6,4.416-13.7-3.121C-12.576,48.7,29.25,0,43,0Z" transform="translate(477 65)"/><rect class="e" width="58" height="58" transform="translate(650 54.988) rotate(45)"/><rect class="f" width="99" height="92" transform="translate(591.494 54.693) rotate(42)"/><circle class="b" cx="10" cy="10" r="10" transform="translate(645 -4)"/><circle class="g" cx="16" cy="16" r="16" transform="translate(369.445 17.757) rotate(-40)"/><circle class="h" cx="22" cy="22" r="22" transform="translate(382 6)"/><circle class="b" cx="1" cy="1" r="1" transform="translate(529 23)"/><circle class="b" cx="4" cy="4" r="4" transform="translate(623 38)"/><circle class="b" cx="4" cy="4" r="4" transform="translate(421 34)"/><path class="i" d="M51,0c13.745,0,2.413,31.783,16.641,43.442,6.725,5.511,29.4-8.057,40.733-6.807,12.7,1.4,59.422,20.082,59.422,27.855C167.8,92.657,79.167,102,51,102A51,51,0,0,1,0,51C0,30.129,8.58,37.9,26.779,29.894,32.81,27.241,43.7,0,51,0Z" transform="translate(150 53)"/><rect class="j" width="196" height="125" transform="matrix(0.875, 0.485, -0.485, 0.875, 41.588, 28.325)"/><circle class="b" cx="5" cy="5" r="5" transform="translate(97 7)"/><circle class="b" cx="3" cy="3" r="3" transform="translate(181 44)"/><line class="k" x2="8" y2="12" transform="translate(20.5 105.5)"/><line class="k" y1="9" x2="10" transform="translate(35.5 108.5)"/><line class="l" y1="16" transform="translate(65.5 101.5)"/><line class="l" x1="5" y1="8" transform="translate(60.5 101.5)"/><line class="l" y1="7" x2="5" transform="translate(65.5 101.5)"/><line class="k" y1="4" x2="2" transform="translate(24.5 105.5)"/><line class="k" x1="7" y1="5" transform="translate(16.5 105.5)"/><line class="k" x1="2" y1="8" transform="translate(38.5 105.5)"/><line class="k" y1="13" transform="translate(232.5 104.5)"/><line class="k" x1="7" y1="8" transform="translate(225.5 102.5)"/><line class="k" y1="6" x2="4" transform="translate(232.5 104.5)"/><g class="m" transform="translate(349 85)"><path class="r" d="M 7.773561954498291 33.25003433227539 L 6.496121883392334 24.93614768981934 L 7.857808113098145 -2.161468982696533 L 8.500000953674316 0.07050792872905731 L 8.500000953674316 31.87595748901367 L 7.773561954498291 33.25003433227539 Z"/><path class="s" d="M 8.000000953674316 4.971477508544922 L 6.998044013977051 24.91046524047852 L 8.000000953674316 31.43144226074219 L 8.000000953674316 4.971477508544922 M 7.508970737457275 -5.182163238525391 L 9.000000953674316 -3.814697265625e-06 L 9.000000953674316 31.99999618530273 L 7.508970737457275 34.82031631469727 L 5.994200706481934 24.96182632446289 L 7.508970737457275 -5.182163238525391 Z"/></g><line class="n" x1="9" y1="15" transform="translate(347.5 70.5)"/><line class="n" x1="19" y1="11" transform="translate(337.5 75.5)"/><line class="n" y1="22" x2="20" transform="translate(356.5 65.5)"/><line class="n" y1="20" x2="6" transform="translate(356.5 62.5)"/><line class="n" x1="2" y1="28" transform="translate(354.5 57.5)"/><path class="n" d="M429.5,289.89c-30.627-10.236-21.133,3.448-28.177,3.177" transform="matrix(0.875, 0.485, -0.485, 0.875, 121.474, -377.087)"/><path class="n" d="M431,281.5c29.36-11.661,15.683,1.642,21.263,2.189" transform="translate(-118.352 -109.584) rotate(-11)"/><g class="o" transform="translate(363.278 90.029) rotate(156)"><path class="r" d="M 2.854034662246704 8.195342063903809 C 2.346392154693604 7.909385204315186 0.9593310356140137 6.568338394165039 0.2731821238994598 4.7980637550354 C 0.0555221363902092 4.240283966064453 0.2165621370077133 3.364653825759888 0.3231221437454224 2.785223960876465 C 0.3755221366882324 2.500303983688354 0.4169121384620667 2.275253772735596 0.4169121384620667 2.099033832550049 C 0.4169121384620667 1.801843881607056 0.4317421317100525 1.036573886871338 0.5691221356391907 0.3508238792419434 C 0.7188777327537537 -0.3966929912567139 0.9141184091567993 -0.5435788631439209 0.9357036948204041 -0.5575407743453979 L 1.031872153282166 -0.5576761364936829 L 1.150302171707153 -0.55783611536026 C 1.667002081871033 -0.55783611536026 2.260142087936401 -0.5415661334991455 2.741772174835205 -0.4208761155605316 C 3.37745213508606 -0.2615761160850525 3.37745213508606 -0.03890612721443176 3.37745213508606 0.03426387161016464 L 3.37745213508606 0.10844387114048 L 3.39899206161499 0.1794338673353195 L 4.385349273681641 3.430409669876099 L 4.318551063537598 5.179992198944092 L 3.460322141647339 6.478583812713623 L 3.437642097473145 6.512893676757812 L 3.420872211456299 6.550453662872314 C 3.380062103271484 6.641893863677979 3.344372034072876 6.766733646392822 3.279622077941895 6.997823715209961 C 3.211074590682983 7.242482662200928 3.019973516464233 7.924530506134033 2.854034662246704 8.195342063903809 Z"/><path class="t" d="M 1.198688745498657 -0.05775928497314453 C 1.066599607467651 0.2656097412109375 0.9169120788574219 1.037998199462891 0.9169120788574219 2.099033832550049 C 0.9169120788574219 2.320853710174561 0.8718822002410889 2.565683841705322 0.8148820400238037 2.875663757324219 C 0.724412202835083 3.367593765258789 0.5729920864105225 4.190934181213379 0.7393820285797119 4.617363929748535 C 1.22287130355835 5.864761352539062 2.074007749557495 6.869716167449951 2.640511035919189 7.394305229187012 C 2.708602428436279 7.182558536529541 2.768028736114502 6.970470905303955 2.79816198348999 6.862934112548828 C 2.863471984863281 6.62985372543335 2.906612157821655 6.475873947143555 2.964312076568604 6.34662389755249 L 2.997832298278809 6.271523952484131 L 3.043182134628296 6.202903747558594 L 3.82426118850708 5.021047592163086 L 3.88251519203186 3.495266437530518 L 2.920522212982178 0.3245940208435059 L 2.87745213508606 0.1826238632202148 L 2.87745213508606 0.1476759910583496 C 2.725582122802734 0.07071208953857422 2.308039426803589 -0.05421924591064453 1.198688745498657 -0.05775928497314453 M 1.150298118591309 -1.057834625244141 C 2.082114219665527 -1.057834625244141 3.87745213508606 -1.016648292541504 3.87745213508606 0.03426408767700195 L 4.888192176818848 3.365603923797607 L 4.812851905822754 5.338903903961182 L 3.87745213508606 6.754263877868652 C 3.757042169570923 7.023993968963623 3.425292015075684 8.742413520812988 2.925202131271362 8.742413520812988 C 2.431762218475342 8.742413520812988 0.6196222305297852 7.075403690338135 -0.1930279731750488 4.978763580322266 C -0.5676279067993164 4.018774032592773 -0.08308792114257812 2.562014102935791 -0.08308792114257812 2.099033832550049 C -0.08308792114257812 0.9586939811706543 0.1019620895385742 -1.057536125183105 0.9326820373535156 -1.057536125183105 C 0.9978349208831787 -1.057536125183105 1.070996046066284 -1.057834625244141 1.150298118591309 -1.057834625244141 Z"/></g><circle class="p" cx="3" cy="3" r="3" transform="translate(351 84)"/><ellipse class="p" cx="4.5" cy="6" rx="4.5" ry="6" transform="translate(352.196 85.296) rotate(-40)"/><line class="n" x1="11" y2="2" transform="translate(334.5 77.5)"/><line class="q" x1="10" y2="3" transform="translate(337.5 80.5)"/><line class="n" x1="8" y2="5" transform="translate(343.5 83.5)"/></g></svg>