<svg xmlns="http://www.w3.org/2000/svg" viewBox="0 0 60 63.66"><title>Asset 3monapay</title><g id="Layer_2" data-name="Layer 2"><g id="Layer_1-2" data-name="Layer 1"><path d="M24.38,48.66A24.4,24.4,0,0,1,0,24.28V22.41H58.13v3.75H48.68A24.41,24.41,0,0,1,24.38,48.66ZM3.83,26.16a20.63,20.63,0,0,0,41.08,0Z" style="fill:#fff"/><path d="M43.13,39.28V35.53A13.14,13.14,0,0,0,56.25,22.41H60A16.89,16.89,0,0,1,43.13,39.28Z" style="fill:#fff"/><path d="M23,18.56A7.5,7.5,0,0,1,23,8a3.75,3.75,0,0,0,0-5.3L25.7,0a7.5,7.5,0,0,1,0,10.61,3.75,3.75,0,0,0,0,5.3Z" style="fill:#fff"/><path d="M32.2,18.56A7.5,7.5,0,0,1,32.2,8a3.75,3.75,0,0,0,0-5.3L34.85,0a7.5,7.5,0,0,1,0,10.61,3.75,3.75,0,0,0,0,5.3Z" style="fill:#fff"/><path d="M13.9,18.56A7.5,7.5,0,0,1,13.9,8a3.75,3.75,0,0,0,0-5.3L16.55,0a7.5,7.5,0,0,1,0,10.61,3.75,3.75,0,0,0,0,5.3Z" style="fill:#fff"/><rect y="52.41" width="48.75" height="3.75" style="fill:#fff"/><rect x="13.13" y="59.91" width="22.5" height="3.75" style="fill:#fff"/></g></g></svg>