<svg xmlns="http://www.w3.org/2000/svg" viewBox="0 0 60 61.94"><title>Asset 1monapay</title><g id="Layer_2" data-name="Layer 2"><g id="Layer_1-2" data-name="Layer 1"><rect x="1.94" y="9.68" width="30.97" height="3.87" style="fill:#fff"/><rect x="1.94" y="48.39" width="30.97" height="3.87" style="fill:#fff"/><path d="M29,61.94H5.81A5.81,5.81,0,0,1,0,56.13V5.81A5.81,5.81,0,0,1,5.81,0H29a5.81,5.81,0,0,1,5.81,5.81V56.13A5.81,5.81,0,0,1,29,61.94ZM5.81,3.87A1.94,1.94,0,0,0,3.87,5.81V56.13a1.94,1.94,0,0,0,1.94,1.94H29A1.94,1.94,0,0,0,31,56.13V5.81A1.94,1.94,0,0,0,29,3.87Z" style="fill:#fff"/><path d="M41.68,37.81l-2.74-2.74a5.81,5.81,0,0,0,0-8.21l2.74-2.74a9.68,9.68,0,0,1,0,13.68Z" style="fill:#fff"/><path d="M47.16,43.29l-2.74-2.74a13.55,13.55,0,0,0,0-19.16l2.74-2.74a17.42,17.42,0,0,1,0,24.64Z" style="fill:#fff"/><path d="M52.63,48.76,49.89,46a21.29,21.29,0,0,0,0-30.11l2.74-2.74a25.16,25.16,0,0,1,0,35.58Z" style="fill:#fff"/><polygon points="20.51 23.25 20.51 32.04 13.95 23.25 10.86 23.25 10.86 38.69 14.39 38.69 14.39 29.91 20.95 38.69 24.03 38.69 24.03 23.25 20.51 23.25" style="fill:#fff"/><rect x="23.26" y="31.54" width="3.31" height="3.52" style="fill:#fff"/><rect x="23.26" y="26.88" width="3.31" height="3.52" style="fill:#fff"/><rect x="8.42" y="31.54" width="3.31" height="3.52" style="fill:#fff"/><rect x="8.42" y="26.88" width="3.31" height="3.52" style="fill:#fff"/></g></g></svg>