<svg xmlns="http://www.w3.org/2000/svg" viewBox="0 0 60 73.85"><title>Asset 2monapay</title><g id="Layer_2" data-name="Layer 2"><g id="Layer_1-2" data-name="Layer 1"><path d="M41.54,43.85H36.92a2.31,2.31,0,1,0-4.62,0H27.69a6.92,6.92,0,1,1,13.85,0Z" style="fill:#fff"/><path d="M50.77,46.15H46.15a2.31,2.31,0,0,0-4.62,0H36.92a6.92,6.92,0,0,1,13.85,0Z" style="fill:#fff"/><path d="M32.31,25.38H27.69a2.31,2.31,0,0,0-4.62,0H18.46a6.92,6.92,0,0,1,13.85,0Z" style="fill:#fff"/><path d="M60,48.46H55.38a2.31,2.31,0,1,0-4.62,0H46.15a6.92,6.92,0,0,1,13.85,0Z" style="fill:#fff"/><rect x="46.15" y="43.85" width="4.62" height="4.62" style="fill:#fff"/><polygon points="55.38 73.85 50.77 73.85 50.77 70.84 55.38 63.92 55.38 48.46 60 48.46 60 65.31 55.38 72.24 55.38 73.85" style="fill:#fff"/><rect x="27.69" y="25.38" width="4.62" height="23.08" style="fill:#fff"/><rect x="36.92" y="41.54" width="4.62" height="6.92" style="fill:#fff"/><path d="M20.77,73.85H16.15V72.49L9.23,65.57V46.15h2.31a11.26,11.26,0,0,1,6.92,2.52V25.38h4.62V57.69H18.46a7.58,7.58,0,0,0-4.62-6.42V63.66l6.92,6.92Z" style="fill:#fff"/><path d="M20.77,57.69" style="fill:#fff"/><path d="M41.54,25.38H36.92a11.54,11.54,0,0,0-23.08,0H9.23a16.15,16.15,0,0,1,32.31,0Z" style="fill:#fff"/><path d="M50.77,25.38H46.15a20.77,20.77,0,0,0-41.54,0H0a25.38,25.38,0,0,1,50.77,0Z" style="fill:#fff"/></g></g></svg>