<svg xmlns="http://www.w3.org/2000/svg" xmlns:xlink="http://www.w3.org/1999/xlink" viewBox="0 0 2084 1109"><defs><style>.a{clip-path:url(#b);}.b{fill:rgba(128,0,128,0.58);opacity:0.69;}.c{fill:rgba(192,192,192,0.45);opacity:0.421;}.d{fill:rgba(135,206,250,0.67);opacity:0.732;}.e{fill:#a07aff;opacity:0.648;}.f{fill:rgba(170,102,205,0.6);}.g,.n{fill:rgba(128,0,128,0.69);}.g{opacity:0.757;}.h{fill:none;}.i,.k,.l{fill:rgba(93,37,93,0.75);}.i{opacity:0.827;}.j{fill:#ff0080;opacity:0.463;}.k{opacity:0.702;}.l{opacity:0.741;}.m{fill:rgba(211,160,95,0.7);}.n{opacity:0.648;}.o{fill:rgba(208,122,208,0.6);opacity:0.56;}</style><clipPath id="b"><rect width="2084" height="1109"/></clipPath></defs><g id="a" class="a"><path class="b" d="M32.752,0C50.841,0,121,104.708,121,169.517s-70.159,65.178-88.248,65.178S0,182.156,0,117.347A366.72,366.72,0,0,1,5.121,54.315C10.906,21.722,21.121,0,32.752,0Z" transform="translate(1849 39.306)"/><circle class="c" cx="347" cy="347" r="347" transform="translate(1056 177)"/><rect class="d" width="360" height="855" transform="translate(894 192)"/><path class="e" d="M0,0H526V540H0Z" transform="translate(427 418)"/><path class="f" d="M0,0H368V414H0L-2.058,300.791-2.53,169.97Z" transform="translate(1166.791 826.72) rotate(140)"/><circle class="g" cx="167" cy="167" r="167" transform="translate(786 241)"/><path class="h" d="M110.839,171.109c66.55,0,202.082-11.275,202.082,185.891,0,95.822,51.763,323.963,0,413.986-54.532,94.838-77.016,0-111.223,0-29.415,0-88.381-41.429-90.86-109.8C107.721,575.155,29.19,497.839,29.19,387.82,29.19,190.654,44.289,171.109,110.839,171.109Z" transform="translate(262 133)"/><path class="i" d="M249.083,83.993c84.5,0,56.917,92.631,56.917,310.507s84.5,398.724,0,398.724S0,612.376,0,394.5,164.584,83.993,249.083,83.993Z" transform="translate(97.758 221.339) rotate(-16)"/><path class="j" d="M93,0c51.362,0,119.718,45.939,119.718,97.3S119.837,242.366,68.475,242.366s0-93.7,0-145.065S41.638,0,93,0Z" transform="translate(1221.491 337.545) rotate(19)"/><path class="j" d="M60.86,0c16.5,0,38.463,20.445,38.463,43.3s-29.84,64.56-46.342,64.56,0-41.7,0-64.56S44.359,0,60.86,0Z" transform="translate(1944.416 169.761) rotate(-163)"/><path class="k" d="M249.083,83.993c84.5,0,56.917,92.631,56.917,310.507s84.5,398.724,0,398.724S0,612.376,0,394.5,164.584,83.993,249.083,83.993Z" transform="translate(-329.242 -503.661) rotate(-16)"/><path class="f" d="M0,0H368V414H0L-2.058,300.791-2.53,169.97Z" transform="translate(2356.791 1253.72) rotate(140)"/><path class="l" d="M64.548,83.993c21.9,0,14.75,24.872,14.75,83.373s21.9,107.06,0,107.06S0,225.867,0,167.366,42.65,83.993,64.548,83.993Z" transform="translate(1782.758 17.339) rotate(-16)"/><circle class="m" cx="85" cy="85" r="85" transform="translate(100 71)"/><circle class="m" cx="85" cy="85" r="85" transform="translate(1790 555)"/><circle class="n" cx="167" cy="167" r="167" transform="translate(1572 484)"/><circle class="c" cx="347" cy="347" r="347" transform="translate(291 -155)"/><circle class="c" cx="347" cy="347" r="347" transform="translate(326 390)"/><rect class="o" width="1133" height="1263" transform="matrix(0.326, -0.946, 0.946, 0.326, 746.483, 833.837)"/><rect class="o" width="1217" height="1109" transform="translate(-229.049 981.06) rotate(-74)"/></g></svg>