<svg xmlns="http://www.w3.org/2000/svg" xmlns:xlink="http://www.w3.org/1999/xlink" viewBox="0 0 10782 9582"><defs><style>.a{clip-path:url(#b);}.b,.c,.h{fill:none;}.b,.e{stroke:#a4f1f0;}.b,.c{stroke-width:1000px;}.c{stroke:#f24a8a;}.d,.e,.f{fill:#fff;stroke-width:900px;}.d,.f{stroke:#acceef;}.f{stroke-linecap:round;}.g{stroke:none;}</style><clipPath id="b"><rect width="10782" height="9582"/></clipPath></defs><g id="a" class="a"><g class="b" transform="translate(1799 758)"><circle class="g" cx="3681" cy="3681" r="3681"/><circle class="h" cx="3681" cy="3681" r="3181"/></g><g class="c" transform="translate(3575 2534)"><circle class="g" cx="1905" cy="1905" r="1905"/><circle class="h" cx="1905" cy="1905" r="1405"/></g><g class="d" transform="translate(2924.103 426.495) rotate(48)"><rect class="g" width="1516" height="1516" rx="505"/><rect class="h" x="450" y="450" width="616" height="616" rx="55"/></g><g class="e" transform="translate(1220.909 2704.755) rotate(9)"><rect class="g" width="1516" height="1516" rx="434"/><rect class="h" x="450" y="450" width="616" height="616" rx="16"/></g><g class="d" transform="translate(990.461 5395.964) rotate(-20)"><rect class="g" width="1516" height="1516" rx="480"/><rect class="h" x="450" y="450" width="616" height="616" rx="30"/></g><g class="e" transform="matrix(0.629, -0.777, 0.777, 0.629, 1967.898, 7733.052)"><rect class="g" width="1516" height="1516" rx="459"/><rect class="h" x="450" y="450" width="616" height="616" rx="9"/></g><g class="d" transform="translate(4632.999 9001) rotate(-90)"><rect class="g" width="1516" height="1516" rx="497"/><rect class="h" x="450" y="450" width="616" height="616" rx="47"/></g><g class="e" transform="translate(7340.999 8692.571) rotate(-116)"><rect class="g" width="1516" height="1516" rx="443"/><rect class="h" x="450" y="450" width="616" height="616" rx="7"/></g><g class="d" transform="translate(9456.475 6952.448) rotate(-151)"><rect class="g" width="1516" height="1516" rx="436"/><rect class="h" x="450" y="450" width="616" height="616" rx="14"/></g><g class="e" transform="translate(10079.86 4005.107) rotate(166)"><rect class="g" width="1516" height="1516" rx="548"/><rect class="h" x="450" y="450" width="616" height="616" rx="98"/></g><g class="f" transform="translate(9073.101 1365.948) rotate(129)"><rect class="g" width="1516" height="1516" rx="455"/><rect class="h" x="450" y="450" width="616" height="616" rx="5"/></g><g class="e" transform="translate(6037.999 13) rotate(90)"><rect class="g" width="1516" height="1516" rx="428"/><rect class="h" x="450" y="450" width="616" height="616" rx="22"/></g></g></svg>